<svg width="1200" height="600" viewBox="0 0 1200 600" fill="none" xmlns="http://www.w3.org/2000/svg">
<path d="M787.145 246.707C799.298 246.707 810.135 249.81 819.365 255.945C827.912 261.613 834.322 269.638 838.492 279.726H819.997C814.185 270.331 803.228 263.675 790.392 262.618C789.315 262.514 788.272 262.463 787.247 262.463H786.769C765.949 262.463 749.078 277.109 749.078 295.187C749.078 313.265 765.949 327.91 786.769 327.91C801.451 327.91 814.151 320.614 820.373 309.972H838.68C834.167 320.319 827.621 328.413 819.143 333.994C810.066 339.957 799.314 342.99 787.161 342.99C777.11 342.99 767.795 340.876 759.453 336.716C751.095 332.539 744.412 326.732 739.608 319.435C734.788 312.12 732.344 304.026 732.344 294.909C732.344 285.792 734.788 277.455 739.608 270.141C744.412 262.844 751.061 257.055 759.385 252.912C767.675 248.804 777.025 246.707 787.145 246.707ZM622.981 265.392H581.992V341.136H564.387V265.392H522.799V249.359H622.981V265.392ZM687.851 341.136H670.244V249.359H687.851V341.136ZM901.771 325.346H965.118V341.136H884.165V249.359H901.771V325.346ZM1100 265.392H1026.96V285.116H1089.83V301.132H1026.96V325.57L1099.88 325.085V341.136H1009.37V249.359H1099.86L1100 265.392ZM442.82 249.116C450.324 249.116 457.076 250.416 462.888 252.964C468.733 255.529 473.331 259.169 476.579 263.797C479.827 268.442 481.484 273.885 481.484 279.969V280.454C481.484 288.111 479.319 294.58 475.019 299.688L474.613 300.195C470.374 304.979 464.597 308.342 457.384 310.18L483.434 340.893H460.392L435.897 311.93H399.045V340.893H381.319V249.116H442.82ZM161.519 248.597C168.788 248.597 175.351 249.816 181.038 252.209L181.586 252.462C187.431 255.027 192.03 258.684 195.277 263.294C198.525 267.939 200.183 273.382 200.183 279.466V279.951C200.183 290.143 197.294 298.012 191.603 303.315C185.945 308.602 177.295 311.289 165.929 311.289H117.726V340.373H100V248.597H161.519ZM340.107 340.373H321.031L309.921 319.521H252.471L241.36 340.373H222.284L271.324 248.597H291.084L340.107 340.373ZM786.99 285.082C792.145 285.082 796.323 289.318 796.323 294.545C796.323 299.772 792.145 304.009 786.99 304.009C781.836 304.009 777.657 299.772 777.657 294.545C777.657 289.318 781.836 285.082 786.99 285.082ZM261.479 302.657H300.913L281.256 265.79L261.479 302.657ZM399.011 296.019H441.486C446.597 296.019 450.614 295.758 453.435 295.238C456.118 294.753 458.306 293.471 460.118 291.339C461.896 289.242 462.802 285.792 462.802 281.061C462.802 276 461.896 272.29 460.102 270.02C458.29 267.732 456.101 266.363 453.418 265.843C453.093 265.773 452.29 265.721 451.145 265.687H399.011V296.019ZM155.519 264.022C153.211 264.022 149.245 264.04 143.639 264.074C138.271 264.126 129.742 264.144 117.589 264.144L117.708 295.741H160.663C165.364 295.741 169.262 295.464 172.253 294.909C174.897 294.422 177.226 293.172 179.183 291.204L179.552 290.818C181.551 288.634 182.56 285.359 182.56 280.315C182.56 275.272 181.551 271.527 179.534 269.188C177.517 266.83 175.09 265.374 172.304 264.854C169.347 264.3 165.432 264.022 160.663 264.022H155.519Z" fill="#030B2E"/>
</svg>
